<svg width="22" height="22" viewBox="0 0 22 22" fill="none" xmlns="http://www.w3.org/2000/svg">
<path d="M12.7646 2.29533C13.124 2.29531 13.4771 2.38918 13.789 2.56765C14.101 2.74612 14.3608 3.003 14.5429 3.31284L15.2891 4.58425H17.1875C17.9775 4.58425 18.7351 4.898 19.2938 5.45651C19.8525 6.01501 20.1664 6.77254 20.1667 7.5625V16.2708C20.1667 16.6621 20.0896 17.0495 19.9399 17.4109C19.7902 17.7724 19.5707 18.1008 19.2941 18.3774C19.0175 18.6541 18.689 18.8735 18.3276 19.0232C17.9661 19.1729 17.5787 19.25 17.1875 19.25H4.81251C4.02239 19.25 3.26462 18.9361 2.70592 18.3774C2.14722 17.8187 1.83334 17.061 1.83334 16.2708V7.5625C1.83334 6.77238 2.14722 6.01461 2.70592 5.45591C3.26462 4.89721 4.02239 4.58333 4.81251 4.58333H6.71918L7.52126 3.278C7.70568 2.97754 7.96405 2.72936 8.27168 2.55717C8.57932 2.38497 8.92596 2.29451 9.27851 2.29442H12.7646V2.29533ZM12.7646 3.67034H9.27851C9.17819 3.67042 9.07911 3.69245 8.98822 3.73489C8.89732 3.77733 8.81681 3.83915 8.75234 3.916L8.69276 3.9985L7.69084 5.63017C7.62941 5.73038 7.5433 5.81317 7.44075 5.87062C7.3382 5.92807 7.22264 5.95827 7.10509 5.95834H4.81343C4.60269 5.95821 4.39399 5.99962 4.19926 6.08018C4.00453 6.16074 3.82757 6.27889 3.67852 6.42786C3.52946 6.57683 3.41122 6.75372 3.33054 6.9484C3.24987 7.14309 3.20834 7.35176 3.20834 7.5625V16.2708C3.20834 17.1563 3.92701 17.875 4.81251 17.875H17.1875C17.613 17.875 18.021 17.706 18.3218 17.4052C18.6227 17.1043 18.7917 16.6963 18.7917 16.2708V7.5625C18.7917 7.13705 18.6227 6.72902 18.3218 6.42818C18.021 6.12735 17.613 5.95834 17.1875 5.95834H14.8958C14.776 5.9584 14.6582 5.92713 14.5542 5.86764C14.4502 5.80815 14.3635 5.72249 14.3028 5.61917L13.3568 4.00859C13.2961 3.9054 13.2096 3.81983 13.1057 3.76034C13.0019 3.70086 12.8843 3.66952 12.7646 3.66942V3.67034ZM11 7.33333C12.094 7.33333 13.1432 7.76793 13.9168 8.54152C14.6904 9.31511 15.125 10.3643 15.125 11.4583C15.125 12.5524 14.6904 13.6016 13.9168 14.3751C13.1432 15.1487 12.094 15.5833 11 15.5833C9.90599 15.5833 8.85678 15.1487 8.0832 14.3751C7.30961 13.6016 6.87501 12.5524 6.87501 11.4583C6.87501 10.3643 7.30961 9.31511 8.0832 8.54152C8.85678 7.76793 9.90599 7.33333 11 7.33333ZM11 8.70833C10.6389 8.70833 10.2813 8.77947 9.94763 8.91767C9.61399 9.05587 9.31083 9.25843 9.05547 9.51379C8.80011 9.76915 8.59754 10.0723 8.45934 10.406C8.32114 10.7396 8.25001 11.0972 8.25001 11.4583C8.25001 11.8195 8.32114 12.1771 8.45934 12.5107C8.59754 12.8444 8.80011 13.1475 9.05547 13.4029C9.31083 13.6582 9.61399 13.8608 9.94763 13.999C10.2813 14.1372 10.6389 14.2083 11 14.2083C11.7294 14.2083 12.4288 13.9186 12.9446 13.4029C13.4603 12.8872 13.75 12.1877 13.75 11.4583C13.75 10.729 13.4603 10.0295 12.9446 9.51379C12.4288 8.99807 11.7294 8.70833 11 8.70833Z" fill="#84888D"/>
</svg>
