<svg width="41" height="35" viewBox="0 0 41 35" fill="none" xmlns="http://www.w3.org/2000/svg">
<g clip-path="url(#clip0_7_58)">
<path d="M3.4857 28.4461L3.40855 5.79077C3.40325 4.23322 4.92408 2.95367 6.78817 2.94732L37.2915 2.84345L30.5323 8.53035L30.5998 28.3537C30.6051 29.9113 29.0843 31.1908 27.2202 31.1972L6.88461 31.2664C5.02052 31.2728 3.49101 30.0036 3.4857 28.4461Z" fill="white"/>
<path d="M12 13L27.7053 13.0182L27.7092 15.4774L12.0039 15.4593L12 13ZM12.0078 17.9185L21.8236 17.9299L21.8275 20.3891L12.0117 20.3778L12.0078 17.9185Z" fill="#128C7E"/>
</g>
<defs>
<clipPath id="clip0_7_58">
<rect width="33.9831" height="40.6714" fill="white" transform="matrix(0.00340535 0.999994 0.999994 -0.00340535 0 0.138489)"/>
</clipPath>
</defs>
</svg>
