<svg width="18" height="20" viewBox="0 0 18 20" fill="none" xmlns="http://www.w3.org/2000/svg">
<path d="M15.6044 14.977C15.1751 14.5284 14.7572 14.0669 14.3513 13.593C14.0103 13.215 13.805 12.94 13.805 12.94L11.2383 11.603C12.2659 10.3316 12.833 8.69499 12.8333 7C12.8333 3.141 9.955 0 6.41667 0C2.87833 0 0 3.141 0 7C0 10.859 2.87833 14 6.41667 14C8.03275 14 9.50583 13.34 10.6361 12.261L11.8617 15.061C11.8617 15.061 12.1138 15.285 12.4603 15.657C12.815 16.02 13.2816 16.511 13.7289 17.024L14.9737 18.416L15.5274 19.062L17.4717 16.941L16.8795 16.337C16.5321 15.965 16.0683 15.471 15.6044 14.977ZM6.41667 12C3.88942 12 1.83333 9.757 1.83333 7C1.83333 4.243 3.88942 2 6.41667 2C8.94392 2 11 4.243 11 7C11 9.757 8.94392 12 6.41667 12Z" fill="#7b8990"/>
</svg>
